<?xml version="1.0" encoding="UTF-8"?>
<svg id="Layer_1" data-name="Layer 1" xmlns="http://www.w3.org/2000/svg" viewBox="0 0 151.17 138.54">
  <defs>
    <style>
      .cls-1 {
        fill: #ef8200;
        stroke-width: 0px;
      }
    </style>
  </defs>
  <g>
    <path class="cls-1" d="m146.89,95.43c-5.41-9.4-10.81-18.76-16.22-28.16-6.39-11.09-12.79-22.14-19.23-33.24-1.27-2.21-2.54-4.47-3.76-6.72-2.91-5.17-5.88-10.58-9.35-15.56-5.36-7.71-13.02-11.75-22.19-11.75-1.41,0-2.82.09-4.32.28-8.88,1.13-15.84,5.97-20.68,14.39C38.76,36.06,4.07,96.09,4.07,96.09.82,101.69-.49,107.61.16,113.58c1.55,14.15,13.45,24.87,27.6,24.87,16.17.05,32.39.09,48.56.09s31.4-.05,47.11-.09c10.95-.05,19.32-5.22,24.87-15.47,1.32-2.44,1.97-5.08,2.59-7.62l.28-1.27v-7.52c-.85-3.95-2.26-7.71-4.28-11.14Zm-14.1,23.74c-2.4,2.72-5.36,4.14-8.7,4.14-7.48.05-14.95.05-22.42.05H28.14c-6.06,0-10.72-3.39-12.41-9.03-1.08-3.43-.8-6.63.75-9.4,3.1-5.59,6.3-11.09,9.5-16.59l13.3-23.04c8.37-14.43,16.74-28.87,25.01-43.35,2.44-4.28,6.72-6.86,11.52-6.86,2.58,0,5.17.8,7.19,2.26,1.65,1.13,3.01,2.73,4.28,4.98,0,0,40.29,69.76,46.59,80.67,3.38,5.88,3.01,11.47-1.08,16.17Z"/>
    <path class="cls-1" d="m83.41,100.48c0,2.07-.81,4.06-2.27,5.56-1.5,1.5-3.45,2.31-5.47,2.31-4.3,0-7.91-3.61-7.91-7.91-.04-2.07.77-4.06,2.23-5.52,1.54-1.54,3.53-2.35,5.68-2.35,4.42,0,7.75,3.41,7.75,7.91Z"/>
  </g>
  <path class="cls-1" d="m85.97,52.73l-3.65,29.73c-.45,3.33-3.29,5.84-6.61,5.84h-.08c-3.37,0-6.25-2.51-6.69-5.84l-3.57-29.73c-.37-2.96.57-5.92,2.51-8.15,1.99-2.23,4.83-3.49,7.79-3.49s5.84,1.3,7.79,3.53c1.99,2.19,2.88,5.19,2.52,8.11Z"/>
</svg>