<?xml version="1.0" encoding="UTF-8"?>
<svg id="Layer_1" data-name="Layer 1" xmlns="http://www.w3.org/2000/svg" viewBox="0 0 199.44 199.35">
  <defs>
    <style>
      .cls-1 {
        fill: #ef8200;
        stroke-width: 0px;
      }
    </style>
  </defs>
  <path class="cls-1" d="m199.44,93.51c-1.48,3.11-3.61,5.4-7.31,5.56-4.77.2-8.36-3.18-8.37-7.97-.03-14.2,0-28.4-.02-42.6,0-5.36-1.52-10.07-5.85-13.6-3.02-2.46-6.55-3.32-10.3-3.48-2.52-.11-5.06.02-7.59-.04-1.28-.03-1.72.48-1.68,1.72.06,1.94.03,3.89,0,5.84-.06,4.65-3.43,8.03-7.96,8.01-4.43-.02-7.78-3.38-7.86-7.92-.03-2.01-.05-4.02,0-6.03.03-1.16-.41-1.61-1.59-1.61-10.63.03-21.27.03-31.9,0-1.3,0-1.7.51-1.67,1.74.06,2.07.05,4.15,0,6.22-.11,4.33-3.59,7.63-7.97,7.61-4.26-.02-7.71-3.32-7.83-7.55-.06-2.14-.06-4.28,0-6.42.03-1.18-.45-1.6-1.61-1.6-10.5.02-21.01.03-31.51,0-1.31,0-1.68.55-1.65,1.76.06,2.07.05,4.15,0,6.22-.12,4.33-3.61,7.62-7.99,7.59-4.26-.03-7.69-3.33-7.81-7.57-.06-2.07-.06-4.15,0-6.22.03-1.19-.29-1.81-1.63-1.78-3.56.08-7.12-.11-10.68.38-6.08.84-11.74,6.71-12.41,12.82-.25,2.33-.33,4.65-.33,6.98,0,38.26,0,76.52,0,114.78,0,5.42,1.44,10.22,5.84,13.8,3.3,2.69,7.17,3.5,11.27,3.5,19.19.03,38.39,0,57.58.02,5.17,0,8.7,3.9,8.13,8.96-.39,3.39-2.61,5.37-5.53,6.73H27.06c-.18-.07-.36-.17-.55-.2C11.53,196.97-.09,183.39,0,167.46c.23-39.94.08-79.88.08-119.83,0-2.01.09-4,.38-6,1.84-12.65,13.02-23.83,25.63-25.69,4.08-.6,8.15-.28,12.23-.37,2.61-.06,2.61-.02,2.62-2.71,0-1.69-.02-3.37.01-5.06C41.04,3.32,44.47-.02,48.93,0c4.34.02,7.74,3.37,7.83,7.75.04,2.07.05,4.15,0,6.22-.03,1.18.45,1.59,1.61,1.59,10.5-.02,21.01-.03,31.51,0,1.32,0,1.68-.55,1.65-1.76-.06-2.01-.04-4.02,0-6.03C91.62,3.38,94.99.03,99.33,0c4.46-.03,7.92,3.3,8.01,7.76.04,2.01.05,4.02,0,6.03-.03,1.18.29,1.78,1.63,1.78,10.63-.03,21.27-.03,31.9,0,1.33,0,1.67-.57,1.64-1.77-.05-2.07-.05-4.15,0-6.22C142.63,3.33,146.06.03,150.32,0c4.38-.03,7.87,3.26,8,7.58.06,2.01.11,4.02,0,6.03-.09,1.59.55,2.02,2.04,1.97,2.85-.09,5.71-.04,8.56-.01,7.8.08,14.56,2.85,20.34,8,5.7,5.07,8.89,11.53,10.2,18.98v50.97Z"/>
  <path class="cls-1" d="m146.91,199.35c-5.64-.96-11.15-2.35-16.22-5.11-14.22-7.73-22.93-19.54-25.07-35.59-3.32-24.93,12.4-47.06,36.91-52.64,24.03-5.47,49.44,10.08,55.46,33.98.57,2.25.98,4.55,1.46,6.83v10.9c-.11.5-.23,1.01-.32,1.51-2.83,16.17-11.5,28.04-26.13,35.53-4.79,2.45-9.94,3.66-15.18,4.59h-10.9Zm-25.9-47.02c.44,17.88,14.23,31.3,31.45,31.2,17.63-.1,31.13-13.88,31.16-31.23.02-17.5-13.68-31.31-31.28-31.3-17.69.01-31.01,13.91-31.33,31.32Z"/>
  <path class="cls-1" d="m40.94,81.71c.04-4.4,3.54-7.81,7.99-7.78,4.49.02,7.9,3.57,7.83,8.13-.07,4.38-3.6,7.74-8.08,7.68-4.39-.05-7.77-3.57-7.73-8.04Z"/>
  <path class="cls-1" d="m82.58,89.75c-4.4-.04-7.81-3.53-7.79-7.98.02-4.49,3.56-7.9,8.13-7.83,4.38.07,7.74,3.6,7.69,8.08-.05,4.39-3.57,7.77-8.03,7.74Z"/>
  <path class="cls-1" d="m124.47,81.96c-.04,4.4-3.53,7.81-7.98,7.79-4.49-.02-7.91-3.56-7.84-8.13.07-4.38,3.6-7.74,8.08-7.69,4.39.05,7.78,3.57,7.74,8.03Z"/>
  <path class="cls-1" d="m150.56,73.93c4.39.05,7.79,3.55,7.76,8.01-.03,4.49-3.58,7.89-8.16,7.81-4.37-.08-7.72-3.62-7.66-8.11.06-4.38,3.59-7.76,8.06-7.71Z"/>
  <path class="cls-1" d="m56.76,115.85c-.05,4.39-3.56,7.79-8.02,7.75-4.48-.03-7.88-3.59-7.8-8.16.08-4.37,3.63-7.72,8.11-7.66,4.38.06,7.75,3.59,7.7,8.06Z"/>
  <path class="cls-1" d="m90.62,115.82c-.04,4.4-3.53,7.81-7.98,7.79-4.49-.02-7.9-3.56-7.83-8.13.07-4.38,3.6-7.74,8.08-7.69,4.39.05,7.78,3.57,7.74,8.03Z"/>
  <path class="cls-1" d="m48.7,157.46c-4.39-.05-7.79-3.56-7.76-8.01.03-4.49,3.59-7.88,8.16-7.8,4.37.08,7.72,3.62,7.66,8.11-.06,4.38-3.59,7.75-8.06,7.71Z"/>
  <path class="cls-1" d="m82.57,157.46c-4.4-.04-7.8-3.54-7.77-8,.03-4.49,3.57-7.9,8.14-7.82,4.38.07,7.73,3.61,7.68,8.09-.06,4.39-3.58,7.77-8.04,7.72Z"/>
  <path class="cls-1" d="m144.45,144.25c0-2.72-.05-5.44,0-8.16.09-4.35,3.53-7.68,7.87-7.69,4.36,0,7.82,3.3,7.93,7.63.05,2.07.1,4.15,0,6.21-.08,1.58.43,2.26,2.08,2.12,1.75-.14,3.47,0,5.09.9,3.17,1.75,4.84,5.44,3.96,8.92-.87,3.46-3.9,5.93-7.47,5.98-3.95.06-7.9.07-11.85,0-4.17-.07-7.5-3.4-7.59-7.56-.07-2.78-.01-5.57-.01-8.35Z"/>
</svg>