<?xml version="1.0" encoding="UTF-8"?>
<svg id="Layer_1" data-name="Layer 1" xmlns="http://www.w3.org/2000/svg" viewBox="0 0 731.55 561.36">
  <defs>
    <style>
      .cls-1 {
        fill-rule: evenodd;
      }

      .cls-1, .cls-2 {
        fill: #fff;
        stroke-width: 0px;
      }
    </style>
  </defs>
  <path class="cls-2" d="m480.81,40.23l-7.19,7.67c-.49-.38-.96-.78-1.4-1.21-5.73-5.52-5.45-9.3-2.92-13.45-7.97,5.44-12.61,33-13.68,41-.18,1.37-.18,2.76,0,4.13,2.53,18.62,10.24,32.69,17.08,45.14,5.52,10.07,10.29,18.75,10.84,27.59.14,2.42.02,4.79-.38,7.07.54,2.08.85,4.03.96,5.93.31,5.11-.58,9.86-2.64,14.14-4.25,17.37-20.01,21.59-26.75,23.41-2.71.72-5.95.73-9.33.03-1.72.57-3.31,1-4.66,1.36-1.66.44-3.5.63-5.48.53-8.75-.41-20.41-6.42-24.77-16.76-4.35-10.3,5.92-19.2,11.67-20.88l.66,1.3c.14-7.62,7.91-13.09,12.83-15.17l2.52,3.56c-2.69,2.85-2.68,6.44-2.14,9.09.05.24.16.46.31.65.44.55.8,1.03,1.36,1.79.24.32.74.5,1.13.41l2.7-.67c.27-.07.55.04.71.26.47.67,1.18,1.09,2.14,1.24.9-9.43-4.98-19.22-14.67-31.7-13.18-16.98-20.81-43.17-24.18-57.28-3.97-16.53,2.39-39.75,19.74-51.46,8.28-14.05,22.12-22.48,39.15-22.55.98-.05,2-.05,2.98,0,9.34.43,15.04,4.71,18.09,8.03,2.21-1.14,4.58-1.66,7.11-1.55,2.98.14,5.74,1.15,7.81,2.02,1.08.45,2.16,1.11,3.23,1.97l-2.38,2.54c-.91.89-1.82,1.78-2.73,2.74-6.04,6.6-12.03,12.18-17.72,19.06Zm-55.69,134.26c-.65-.81-.67-1.43-.99-2.18-.1-.26-1.07-3.95-1.16-4.21-.49.85-.93,4.37-.65,5.81l.4,2.19c.05.27.13.54.25.8,1.87,3.9,3.33,3.39,3.98,3.46.14-.3-1-5.16-1.83-5.86Z"/>
  <path class="cls-1" d="m712.43,216.59c-6.49-2.25-24.06,4.92-25.61,6.74-4.7,5.6-7.16,14.42-6.41,17.72,1.25,6.42-5.62,12.64-31.83,25.99-12.57,6.31-17.44-.03-21.53-10.25-10.32-26.78-7.97-28.33-31.58-46.74-13.41-10.36-17.83-14-10.76-17.9.69-.38,1.46-.58,2.25-.58,10.42.06,28.35-5.2,40.13-15.4.37-.31,1-.89,1.77-1.6,2.32-2.15,5.86-5.55,7.03-6.63.07-.07.14-.13.21-.21,35.57-36.87,8.77-50.18,8.69-91.35,0-2.41,2.37-3.71,2.33-7.3l1.03-10.44c0-8.37-1.63-12.6-3.11-15.51-19.28-37.86-55.12-44.22-93.47-39.97-35.68,4.06-53.15,8.96-78.02,44.84-.08.11-.15.23-.22.35-9.38,16.25-16.34,39.86-15.17,57.76-.04.04,1.7,15.45,3.73,22.86.03.11.07.22.11.33.34.95.62,1.92.83,2.9.02.11.05.23.09.34,3.54,11.84,5.16,17.75,14.54,28.65,1.28,1.48,3.63,3.62,5.23,4.76,8.9,6.32,15.2,14.78,30.54,23,5.12,2.73,10.67,4.78,15.7,6.29,4.26,1.27,4.36,7.25.14,8.67-41.23,13.87-119.15,41.99-121.51,72.33-2.23,28.12-44.11,19.91-30.76,75.45,3.59,14.78,16.92,12.02,28.52,4.92,26.43-15.86,15.25-16.67,13.16-34.94-4.03-33.45,42.32-58.7,73.72-67.78,3.59-1.04,6.86,2.39,5.61,5.9-5.44,15.23,8.45,55.4-14.55,90.34-30.67,46.86-76.55,41.51-64.54,46.75,14.85,6.55,49.81,46,12.65,53.34-26.04,5.01-24.1-35.65-39.56-41.5-10.08-3.83-32.51,30.55-33.81,51.37-1.1,18.02,2.12,27.62,5.53,32.34.71.98,4.62,5.79,5.82,5.95,10.89,1.47,16.82-17.82,19.87-32.42.83-3.96,6.04-4.96,8.29-1.6,17.46,26.09,40.16,44.79,63.82,6.35,5.93-9.77,29.09-23.49,40.87-15.98,23.46,15.22,87.37,18.54,112.1-4.63,2.06-1.93,5.4-1.48,6.94.88,4.13,6.35,11.71,18.05,19.66,30.63,12.07,18.52,4.98,45.5,17.74,51.57,4.26,1.87,27.31-1.23,42.92-11.61,64.24-42.97,9.49-57.7-17.94-37.52-2.95,2.17-7.14.13-7.27-3.52-.43-12.01-1.67-31.95-5.3-43.92-5.71-18.19-30.48-29.27-20.94-34.16,9.54-4.68,20.8-15.37,11.29-17.9-9.48-2.32-59.06-27.42-63.69-51.33-3.42-17.64,4.15-40.82,8.34-51.73,1.14-2.98,4.93-3.88,7.32-1.76,31.08,27.63,54.24,23.78,75.11-15.98.55-1.06,1.51-1.85,2.65-2.21,5.42-1.72,21.72-8.07,27.08-23.65,3.42-9.77,1.46-19.05-5.76-21.34Z"/>
  <path class="cls-1" d="m268.81,396.69c41.48,23.05,39.04,78.22,48.77,124.34.8,3.95,16.5-11.49,42.91,2.44,16.4,8.65-90,56.79-88.62,29.72,2.99-53.04-18.35-121.72-79.05-135.69-1.25-.29-2.49.54-2.69,1.8-8.62,53.64-56.66,86.09-109.19,71.43-25.25-6.88-42.42-33.65-48.72-31.54-2.82,1.15-12.41,22.38-13.95,32.75-1.33,10.14-16.82,22.21-18.19-15.52-.85-21.98,4.29-52.05,12.84-66.63,19.27-32.43,25.54,2.65,41.42,22.39,10.59,13.32,37.89,21.86,51.82,15.06,20.62-9.86,34.78-38.87,33.99-47.72-.79-8.83-5.8-18.73,7.1-53.34,8.77-23.53,4.13-44.57,8.46-51.32,1.08-1.69-.47-3.82-2.42-3.32-13.88,3.56-50.38,13.89-62.34,26.95-15.13,16.03-10.46,8.28-20.57,5.39-18.4-5.5-7.98,50.8-44.45,23.75-27.6-20.7,3.85-49.55,19.88-50.52,5.13-.24,18.58-4.99,22.35-12.91,16.57-35.09,83.7-33.02,113.47-48.14,8.09-4.11,15.21-11.2,18.49-14.76.98-1.06.67-2.75-.6-3.43-1.03-.55-2.03-1.12-3.02-1.64-.21-.11-.45-.19-.69-.22-27.56-4.29-29.78-4.02-45.71-15.78-1.93-1.42-1.71,12.24-8.15,7.11-.39-.31-15.16-8.24-20.02-33.14-3.5-17.91-12.63-45.52-5.4-77.32,8.3-36.01,35.92-70.99,80.67-83.52,1.67-.47,3.18,1.03,2.75,2.7-.1.4-.19.8-.25,1.22-.3,2.15,2.37,3.38,3.84,1.78C213.1,8.64,223.87,1.41,237.91,0c1.93-.19,2.49,5.62,1.32,7.16-1.69,2.22-2.04,4.9-1.38,7.74.51,2.2,2.67.84,4.24-.79,4.19-4.35,13.54-2.53,22.92-4.73,3.64-.85,2.97,2.26,1.66,3.7-.02.03-.05.05-.07.08-1.26,1.41-2.1,3.05-.2,3.05,31.46.08,7.25,28.03,57.33,19.27,15.25-2.67,14.85,23.02-9.88,40.46-.64.45-1.31.87-1.47,1.63-5.82,28.73,11.39,59.16,6.37,84.41-8.21,40.82-43.43,51.68-76.19,55.95-2.23.29-2.64,3.29-.59,4.2,32.51,14.33,19.06,41.03,55.08,70.04,11.09,8.82,26.69,17.9,49.89,26.97,12.99,5.1,8.55,15.51,14.88,8.71,45.59-48.58,65.5,46.3,20.21,30.5-7.4-2.68-15.11-6.02-20.92-3.49-32.31,14.22-27.96,14.67-68.3-5.11-9.47-4.64-26.22-17.69-29.05-26.8-7.12-24.54-16.34,50,5.04,73.72h0Z"/>
</svg>