<?xml version="1.0" encoding="UTF-8"?>
<svg id="Layer_1" data-name="Layer 1" xmlns="http://www.w3.org/2000/svg" viewBox="0 0 91.48 84.22">
  <defs>
    <style>
      .cls-1 {
        fill: #FFFFFF;
        stroke-width: 0px;
      }
    </style>
  </defs>
  <path class="cls-1" d="m91.48,59.5v6.43c0,10.09-8.2,18.29-18.29,18.29H18.33C8.3,84.22.09,76.06.04,66.03L0,59.54c-.02-3.92,3.15-7.13,7.07-7.15,3.94,0,7.13,3.17,7.15,7.07l.04,6.49c0,2.24,1.83,4.05,4.07,4.05h54.86c2.24,0,4.07-1.82,4.07-4.07v-6.43c0-3.92,3.19-7.11,7.11-7.11s7.11,3.19,7.11,7.11Z"/>
  <path class="cls-1" d="m55.23,1.64v.86c0,.91-.74,1.64-1.64,1.64h-15.03c-.91,0-1.64-.74-1.64-1.64v-.86c0-.91.74-1.64,1.64-1.64h15.03c.91,0,1.64.74,1.64,1.64Zm-16.67,12.89h15.03c.91,0,1.64-.74,1.64-1.64v-3.09c0-.91-.74-1.64-1.64-1.64h-15.03c-.91,0-1.64.74-1.64,1.64v3.09c0,.91.74,1.64,1.64,1.64Zm28.31,20.63h-11.64v-13.27c0-.91-.74-1.64-1.64-1.64h-15.03c-.91,0-1.64.74-1.64,1.64v13.27h-12.31c-3.81,0-5.65,4.68-2.86,7.28l8.08,7.5,13.06,12.13c1.61,1.49,4.1,1.49,5.71,0l13.06-12.13,8.08-7.5c2.79-2.6.96-7.28-2.86-7.28Z"/>
</svg>