<?xml version="1.0" encoding="UTF-8"?>
<svg id="Layer_1" data-name="Layer 1" xmlns="http://www.w3.org/2000/svg" viewBox="0 0 142.85 147.35">
  <defs>
    <style>
      .cls-1 {
        fill: #ef8200;
        stroke-width: 0px;
        opacity: 0.6;
      }
    </style>
  </defs>
  <path class="cls-1" d="m56.69,11.82c-15.28,15.28-15.75,39.85-1.4,55.7L1.79,121.02c-2.39,2.39-2.39,6.26,0,8.64l12.22,12.22c2.39,2.39,6.26,2.39,8.64,0l7.84-7.84,11.51,11.51c2.39,2.39,6.26,2.39,8.64,0l12.22-12.22c2.39-2.39,2.39-6.26,0-8.64l-11.51-11.51,24.85-24.85c15.87,13.56,39.82,12.83,54.83-2.17,15.76-15.76,15.76-41.41,0-57.17l-17.17-17.17c-15.76-15.76-41.41-15.76-57.17,0Zm54.59,36.92c4.87,4.87,4.87,12.79,0,17.66-4.87,4.87-12.79,4.87-17.66,0l-17.17-17.17c-4.87-4.87-4.87-12.79,0-17.66,4.87-4.87,12.79-4.87,17.66,0l17.17,17.17Z"/>
</svg>