<?xml version="1.0" encoding="UTF-8"?>
<svg id="Layer_1" data-name="Layer 1" xmlns="http://www.w3.org/2000/svg" viewBox="0 0 209.54 210.3">
  <defs>
    <style>
      .cls-1 {
        fill: none;
        stroke: #fff;
        stroke-miterlimit: 10;
        stroke-width: 2.54px;
      }

      .cls-2 {
        fill-rule: evenodd;
      }

      .cls-2, .cls-3, .cls-4, .cls-5 {
        stroke-width: 0px;
      }

      .cls-2, .cls-4 {
        fill: #fff;
      }

      .cls-6, .cls-7 {
        isolation: isolate;
      }

      .cls-7 {
        font-family: ShinMGoPro-Ultra-83pv-RKSJ-H, 'A-OTF Shin Maru Go Pro';
        font-size: 31.15px;
      }

      .cls-7, .cls-5 {
        fill: #ec8123;
      }

      .cls-3 {
        fill: #82bed7;
      }
    </style>
  </defs>
  <g id="Layer_2" data-name="Layer 2">
    <g id="Layer_1-2" data-name="Layer 1-2">
      <path class="cls-1" d="m26.4,192.24v12.19c.02,2.53,2.07,4.59,4.6,4.6h172.7c2.53-.02,4.57-2.07,4.57-4.6V31.79c0-2.53-2.05-4.57-4.57-4.57h-9.14"/>
      <rect class="cls-4" width="181.87" height="181.87" rx="6.74" ry="6.74"/>
      <g class="cls-6">
        <text class="cls-7" transform="translate(26.64 118.93)"><tspan x="0" y="0">PHOTO</tspan></text>
        <text class="cls-7" transform="translate(26.64 155.26)"><tspan x="0" y="0">BOOK</tspan></text>
      </g>
      <path class="cls-3" d="m24.11,48.77c0,17.13,14.75,31,32.95,30.97V17.74c-18.23,0-32.95,13.87-32.95,31.03Z"/>
      <path class="cls-5" d="m89.89,48.77c0-17.13-14.75-31-32.95-31v61.94c18.23,0,32.95-13.9,32.95-30.94Z"/>
      <path class="cls-4" d="m86.38,48.77h-.67l-1.86.15-3.05.21-3.78.21-4.45.21h-26.55l-4.97-.18c-1.58,0-3.05,0-4.48-.18l-3.75-.21-3.05-.21h-2.35.67l1.86-.18,3.05-.21,3.75-.21c1.4,0,2.9,0,4.45-.18l4.97-.18h26.58l4.45.21,3.78.21,3.05.18,1.86.18.49.18Z"/>
      <path class="cls-4" d="m78.67,29.02l-.4.3-1.19.79c-.52.34-1.19.7-1.98,1.13l-.27.15h-.34l-.64.27-1.4.64-1.58.55-.43.15h-.46l-.85.24-1.8.49-1.95.4c-1.37.27-2.75.47-4.15.58h-8.53c-1.43-.15-2.83-.27-4.15-.55l-1.95-.4-1.83-.52-.88-.24h-.46l-.4-.15-1.55-.58-1.43-.61-.64-.3h-.34l-.27-.15-1.98-1.13-1.19-.82-.4-.27.46.18,1.34.52.98.34,1.13.37c.42.14.85.27,1.28.37l1.43.4,1.62.37h.82l.88.15,1.8.3,1.89.24h16.18l1.86-.24,1.86-.34.88-.15h.85l1.58-.37,1.43-.4c.46,0,.91-.24,1.31-.4l1.13-.37.98-.34c.55-.24,1.04-.4,1.34-.52l.4-.09Z"/>
      <path class="cls-4" d="m56.97,77.94v-.67c0-.43,0-1.04-.15-1.86s-.15-1.77-.21-2.87-.15-2.38-.21-3.75c-.06-1.37-.15-2.83-.21-4.42s0-3.23-.15-4.94,0-3.47,0-5.27v-16.18c0-1.71,0-3.35.18-4.94s0-3.05.18-4.42.15-2.62.21-3.72.15-2.1.21-3.05,0-1.43.15-1.86v-.64.64c0,.43,0,1.07.18,1.86s0,1.77.21,3.05.15,2.35.21,3.72.15,2.87.21,4.42c.06,1.55,0,3.23.15,4.94s0,3.47,0,5.27v16.18c0,1.71,0,3.38-.15,4.94-.15,1.55,0,3.05-.18,4.42-.18,1.37-.15,2.62-.21,3.75s-.15,2.07-.21,2.87,0,1.43-.15,1.86l-.06.67Z"/>
      <path class="cls-4" d="m56.94,19.51h-3.93c-1.46.43-2.87.98-4.24,1.65-1.83.62-3.6,1.42-5.27,2.38-1.98,1.1-3.84,2.41-5.55,3.9-.9.84-1.74,1.74-2.53,2.68l-.34.4-.27.37-.58.73-1.1,1.62c-2.18,3.41-3.6,7.26-4.15,11.28-.18,1.42-.29,2.84-.3,4.27v2.07c0,.34,0,1.37.21,2.04.19,1.35.48,2.69.88,3.99.8,2.52,1.94,4.92,3.38,7.13.34.58.73,1.1,1.1,1.62s.4.49.58.76l.58.73.61.7.64.7c.2.23.41.44.64.64l.64.64c1.69,1.52,3.53,2.87,5.49,4.02,3,1.7,6.25,2.89,9.63,3.54l.85.15h3.05-3.93c-1.54-.11-3.07-.36-4.57-.73-4.28-1.12-8.26-3.21-11.61-6.1l-.73-.67-.7-.64-.7-.7-.67-.73c-.93-1-1.78-2.08-2.53-3.23-1.59-2.22-2.87-4.65-3.78-7.22-.43-1.41-.76-2.84-.98-4.3,0-.76-.21-1.46-.24-2.23s0-.79,0-1.13v-1.07c.03-1.49.15-2.98.37-4.45.22-1.46.54-2.89.98-4.3.42-1.4.96-2.75,1.62-4.05.61-1.28,1.31-2.51,2.1-3.69.4-.58.79-1.13,1.22-1.68l.64-.79.09-.43.34-.37c.88-.96,1.82-1.86,2.8-2.71,1.87-1.54,3.92-2.86,6.1-3.93,1.81-.87,3.7-1.57,5.64-2.07,1.49-.36,3.01-.62,4.54-.76h3.96l.03-.03Z"/>
      <path class="cls-4" d="m56.97,77.94h1.68l.58-.18.64-.24c1.05-.49,2.02-1.14,2.87-1.92,1.16-.99,2.19-2.13,3.05-3.38.95-1.49,1.76-3.06,2.44-4.69.18-.46.37-.88.52-1.34l.49-1.37.43-1.46c.15-.52.27-.98.4-1.49.51-2.06.89-4.14,1.13-6.25,0-1.07.21-2.16.27-3.26v-3.57c0-2.29-.15-4.42-.37-6.58-.19-2.12-.52-4.23-.98-6.31l-.37-1.46-.46-1.43v-.18h0v-.37c0-.24-.18-.49-.24-.7s-.37-.88-.55-1.34c-.66-1.64-1.48-3.21-2.44-4.69-.87-1.25-1.9-2.39-3.05-3.38-.86-.77-1.82-1.41-2.87-1.89l-.64-.24-.58-.18h-1.83.82c.79.02,1.56.14,2.32.37,1.17.37,2.27.93,3.26,1.65,1.2.78,2.3,1.71,3.26,2.77,1.19,1.48,2.21,3.08,3.05,4.79.18.43.43.91.64,1.37l.27.7.15.34v.37c0,.49.34,1.01.52,1.49s.3,1.01.49,1.52.27,1.07.43,1.58l.18.79.18.82c0,.55.21,1.1.3,1.65l.27,1.68c.32,2.28.51,4.58.55,6.89v3.47c0,1.13-.21,2.26-.34,3.38,0,.58-.18,1.13-.24,1.68s-.21,1.1-.34,1.65,0,.55-.15.82c-.09.26-.16.52-.21.79-.11.54-.26,1.06-.43,1.58.11.54.01,1.11-.27,1.58-.15.49-.34.98-.52,1.46-.16.51-.37,1.01-.61,1.49-.18.46-.49,1.1-.7,1.55-.63,1.51-1.44,2.93-2.41,4.24-1.21,1.35-2.58,2.53-4.08,3.54-.98.74-2.08,1.3-3.26,1.65-.75.24-1.53.36-2.32.37l-.94-.09Z"/>
      <path class="cls-4" d="m56.94,19.51h-1.74l-.58.18-.64.24c-1.05.49-2.02,1.13-2.9,1.89-1.16,1-2.19,2.15-3.05,3.41-.93,1.6-1.71,3.28-2.32,5.03-.15.43-.34.85-.52,1.31s-.34.94-.46,1.4l-.46,1.46-.37,1.46c-.46,1.86-.49,4.27-1.04,6.1-.04.31-.04.63,0,.94,0,2.07-.34,3.63-.34,5.67-.09,2.23-.05,4.45.12,6.68.26,2.1.64,4.19,1.13,6.25.15.49.24,1.01.4,1.49s.3.94.43,1.43v.7c0,.21.15.46.24.7s.37.88.52,1.31c.73,1.74,3.23,2.53,4.15,3.9.91,1.37.21,3.29,1.22,4.18.87.78,1.84,1.43,2.9,1.92l.64.24.58.18h1.74-.79c-.78,0-1.56-.12-2.32-.34-1.18-.37-2.29-.93-3.29-1.65-1.28-.95-2.43-2.06-3.41-3.32-1.19-1.47-2.21-3.06-3.05-4.75l-.64-1.37-.27-.7v-.73l-.55-1.46-.46-1.55c-.17-.52-.32-1.05-.43-1.58l-.21-.79c0-.27,0-.55-.15-.79s-.24-1.1-.34-1.65l-.24-1.68c-.61-4.54-.61-9.14,0-13.69,0-.55,0-1.1.24-1.68s.21-1.1.34-1.62c.04-.28.09-.55.15-.82.05-.27.12-.53.21-.79.11-.54.25-1.07.43-1.58.15-.52.3-1.07.46-1.55s.37-.98.52-1.46l.61-1.43c.18-.46.43-.91.61-1.37.85-1.69,1.87-3.28,3.05-4.75.98-1.26,2.13-2.38,3.41-3.32,1-.72,2.12-1.27,3.29-1.65.75-.21,1.51-.33,2.29-.37l.88.37Z"/>
      <path class="cls-4" d="m57.91,77.97h2.01l1.04-.55c1.46-.28,2.9-.69,4.3-1.22,1.84-.62,3.6-1.43,5.27-2.41,1.97-1.12,3.8-2.47,5.46-4.02.9-.83,1.75-1.73,2.53-2.68l.3-.37.3-.37c.18-.27.37-.49.58-.76s.73-1.04,1.07-1.58c1.44-2.26,2.55-4.71,3.29-7.28.4-1.3.7-2.64.88-3.99,0-.67.18-1.37.21-2.04s0-.7,0-1.04v-.88c0-1.39-.09-2.77-.27-4.15-.22-1.36-.51-2.7-.88-4.02-.76-2.56-1.87-5-3.29-7.25l-1.1-1.58c-.18-.27-.4-.52-.58-.76-.19-.26-.39-.5-.61-.73-.18-.25-.37-.48-.58-.7l-.67-.7-.64-.67-.58-.76c-1.58-1.64-3.42-3-5.46-4.02h0c-1.68-.97-3.44-1.77-5.27-2.41-1.4-.44-2.82-.78-4.27-1.01h-3.05,2.96c1.53.13,3.05.38,4.54.76,2.48.64,4.89,1.48,7.22,2.53h0c1.57.87,3.07,1.87,4.48,2.99l.7.64.73.67.67.67.7.73c.92,1.02,1.76,2.1,2.53,3.23.79,1.18,1.5,2.41,2.13,3.69.64,1.29,1.17,2.64,1.58,4.02.49,1.33.89,2.7,1.19,4.08.16,1.58.21,3.17.15,4.75v2.26c0,.37-.15,1.46-.24,2.23-.23,1.45-.56,2.89-.98,4.3-.4,1.57-.91,3.11-1.52,4.6-.65,1.08-1.4,2.1-2.23,3.05-.37.58-.79,1.13-1.19,1.68l-.67.82-.34.37-.3.37c-.89.97-1.84,1.88-2.83,2.74-1.86,1.55-3.91,2.86-6.1,3.9-1.8.89-3.69,1.59-5.64,2.07-1.49.39-3.01.65-4.54.76h-3.02v.06Z"/>
      <path class="cls-4" d="m35.23,68.43l.43-.3,1.19-.82c.52-.34,1.19-.67,1.95-1.1h.3l.3-.15.67-.3,1.4-.61,1.58-.58.4-.15h.46l.85-.24,1.83-.52,1.95-.4c1.34-.27,2.71-.43,4.11-.58h6.46c.7-.04,1.4-.04,2.1,0,1.43.15,2.83.3,4.15.58l1.95.4,1.83.49.94-.12h.43l.43.15,1.55.55,1.4.61.67.3.3.15.3.15c.76.43,1.43.76,1.95,1.1l1.19.82.43.3-.49-.18-1.31-.52-.98-.34-1.19-.06c-.4-.15-.85-.24-1.31-.4l-1.43-.37-1.62-.4h-.82l-.85-.15-1.71-.55-1.89-.24h-16.18l-1.89.24-1.83.34-.88.15h-.82l-1.58.37-1.43.4c-.43.1-.86.22-1.28.37l-1.13.4c-.33.07-.66.18-.98.3l-1.34.55-.58.37Z"/>
      <path class="cls-4" d="m68.28,29.38l.21-.18.21-.18h-.24c-.18-.11-.37-.19-.58-.21-.18-.05-.37-.05-.55,0-.33-.4-.8-.65-1.31-.7h-.21c-1.2-.1-2.36.44-3.05,1.43-1.29.79-2,2.25-1.83,3.75.18,1.57.67,3.09,1.43,4.48.64,1.01,1.04,1.77.88,2.47-.05.01-.1.01-.15,0h-.3c-.01-.25.08-.49.24-.67l-.18-.27c-.37,0-1.01.49-1.07,1.07h0c-.46,0-1.28.7-1.04,1.49.29.76.96,1.31,1.77,1.43h.76c.24.04.49.04.73,0,.97-.06,1.81-.68,2.16-1.58.18-.33.29-.69.3-1.07.01-.15.01-.31,0-.46.03-.17.03-.35,0-.52-.04-.75-.26-1.48-.64-2.13-.68-1.23-1.09-2.59-1.19-3.99-.02-.1-.02-.2,0-.3,0-.58.67-2.65,1.31-3.05-.21.3-.27.58,0,1.04h0l.61-.52c.7-.46,1.19-.85,1.71-1.31Zm-6.46,11.52s-.18,0-.3-.27v-.24c-.03-.14-.03-.29,0-.43.01.11.01.22,0,.34h0c.15.18.25.39.3.61Z"/>
      <path class="cls-2" d="m83.09,45.54c-.68-.09-1.37.03-1.98.34-.35.34-.56.8-.61,1.28,0,.52-.52.91-2.56,1.77-1.01.4-1.34,0-1.55-.91-.61-2.1-.43-2.19-2.07-3.75-.94-.85-1.25-1.16-.7-1.4h.18c1.08.02,2.14-.29,3.05-.88h.15l.58-.46h0c3.05-2.56.98-3.72,1.25-6.83,0-.18.21-.27.24-.55l.18-.91c.04-.4,0-.81-.15-1.19-1.12-2.66-3.94-4.17-6.77-3.63-2.39-.22-4.72.86-6.1,2.83h0c-.89,1.25-1.42,2.71-1.55,4.24v1.77h0v.21h0c.1.82.41,1.6.91,2.26.11.15.23.28.37.4.64.71,1.36,1.35,2.13,1.92.36.23.73.42,1.13.58.19,0,.34.15.34.34s-.15.34-.34.34c-3.2.76-9.14,2.35-9.66,4.63s-3.44,1.19-2.83,5.46c.18,1.16,1.22,1.04,2.13.58,2.1-1.04,1.25-1.16,1.22-2.56,0-2.53,3.6-4.11,6.1-4.6.18-.04.36.08.4.26.02.08,0,.16-.03.23-.52,1.1.27,4.24-1.71,6.71-2.62,3.32-6.1,2.62-5.18,3.05s3.44,3.81.61,4.11c-2.01.18-1.58-2.87-2.71-3.38s-2.65,2.07-2.9,3.63c-.24.87-.16,1.8.21,2.62.12.18.26.35.43.49.79.18,1.37-1.22,1.71-2.32.1-.18.32-.24.5-.14.06.03.11.08.14.14,1.13,2.1,2.71,3.66,4.75.91.52-.7,2.35-1.58,3.2-.94,2.57,1.57,5.76,1.73,8.47.43.12-.14.33-.16.47-.05.02.01.03.03.05.05l1.28,2.44c.79,1.49,0,3.47.98,3.99,1.14.17,2.31-.04,3.32-.58,5.12-2.8,1.1-4.27-1.1-3.05-.18.08-.4,0-.48-.18-.02-.05-.03-.1-.03-.16.12-1.1.12-2.22,0-3.32-.3-1.43-2.07-2.41-1.34-2.71s1.68-1.04.98-1.28-4.27-2.47-4.45-4.3c0-1.34.33-2.66.98-3.84.12-.16.35-.19.51-.07.02.02.05.04.07.07,2.13,2.29,3.9,2.16,5.76-.7.07-.03.15-.03.21,0,.93-.2,1.73-.79,2.19-1.62.24-.79.15-1.55-.37-1.74Z"/>
      <path class="cls-2" d="m48.4,56.14c3.05,2.01,2.44,6.1,2.83,9.69,0,.3,1.34-.76,3.23.46,1.19.76-7.16,3.69-6.89,1.65.58-3.96-.55-9.3-5.03-10.73-.06-.06-.15-.06-.21,0-.65,3.49-4.01,5.8-7.5,5.15-.45-.08-.89-.21-1.31-.39-1.86-.7-3.05-2.8-3.47-2.71-.57.7-.99,1.51-1.25,2.38-.18.76-1.43,1.55-1.28-1.28.07-1.74.57-3.43,1.43-4.94,1.65-2.32,1.89.37,3.05,1.95.88,1.18,2.36,1.76,3.81,1.49,1.41-.64,2.47-1.86,2.9-3.35-.16-1.4.16-2.81.91-3.99.82-1.71.61-3.32.98-3.81m-.15-.24c-1.72.17-3.39.73-4.88,1.62-1.25,1.1-.85.55-1.58.24-1.37-.52-.94,3.78-3.51,1.49-1.95-1.74.61-3.69,1.83-3.66.68-.01,1.32-.31,1.77-.82,1.49-2.53,6.52-1.92,8.87-2.87.56-.24,1.06-.58,1.49-1.01m0-.24h-.21c-2.04-.49-2.23-.49-3.35-1.49,0,0-.21.91-.64.49-.79-.64-1.26-1.6-1.28-2.62-.46-1.92-.46-3.93,0-5.85.97-3.09,3.58-5.38,6.77-5.94.1-.02.19.05.21.15,0,.02,0,.04,0,.07h0c-.01.1.06.19.16.21.04,0,.08,0,.12-.02.71-.75,1.68-1.18,2.71-1.22.15,0,.15.43,0,.55-.15.15-.22.37-.18.58,0,.15.21,0,.34,0s1.04,0,1.77-.21.21.18,0,.3h0s-.18.21,0,.21c2.38.21.37,2.16,4.18,1.83,1.19,0,.98,1.86-1.01,3.05h0c-.64,2.13.46,4.54,0,6.4-.88,3.05-3.63,3.6-6.1,3.69-.09.04-.13.15-.09.24.02.04.05.08.09.09,2.35,1.28,1.16,3.05,3.66,5.64,1.07.96,2.29,1.75,3.6,2.35.94.49.55,1.25,1.07.76,3.75-3.35,4.63,3.93,1.31,2.44-.55-.24-1.1-.55-1.55-.4-2.53.85-2.19.91-5.12-.85-.87-.52-1.57-1.28-2.01-2.19-.37-1.92-1.55,3.66,0,5.58l-4.42-13.81Z"/>
    </g>
  </g>
</svg>