<?xml version="1.0" encoding="UTF-8"?>
<svg id="Layer_1" data-name="Layer 1" xmlns="http://www.w3.org/2000/svg" viewBox="0 0 69.18 69.18">
  <defs>
    <style>
      .cls-1 {
        fill: #FFFFFF;
        stroke-width: 0px;
      }
    </style>
  </defs>
  <path class="cls-1" d="m56.83,69.18c-1.99,0-3.85-.78-5.26-2.18l-16.98-16.98-16.98,16.98c-1.41,1.41-3.28,2.18-5.26,2.18s-3.85-.77-5.26-2.18l-4.91-4.92c-1.4-1.39-2.18-3.26-2.18-5.25s.77-3.86,2.18-5.27l16.98-16.97L2.18,17.61c-2.9-2.9-2.9-7.62,0-10.51L7.1,2.17c1.39-1.4,3.26-2.17,5.25-2.17s3.85.77,5.26,2.16l16.99,16.99L51.57,2.17c1.4-1.4,3.27-2.17,5.26-2.17s3.86.77,5.26,2.18l4.91,4.91c2.89,2.9,2.89,7.61.01,10.51l-16.99,16.99,16.97,16.97c1.4,1.41,2.17,3.28,2.17,5.26s-.77,3.86-2.18,5.25l-4.91,4.91c-1.4,1.41-3.26,2.18-5.25,2.18Z"/>
</svg>